<?xml version="1.0" standalone="no"?>
<!DOCTYPE svg PUBLIC "-//W3C//DTD SVG 20010904//EN"
 "http://www.w3.org/TR/2001/REC-SVG-20010904/DTD/svg10.dtd">
<svg version="1.0" xmlns="http://www.w3.org/2000/svg"
 width="500.000000pt" height="500.000000pt" viewBox="0 0 500.000000 500.000000"
 preserveAspectRatio="xMidYMid meet">
<metadata>
Created by potrace 1.14, written by Peter Selinger 2001-2017
</metadata>
<g transform="translate(0.000000,500.000000) scale(0.100000,-0.100000)"
fill="#000000" stroke="none">
<path d="M0 2500 l0 -2500 2500 0 2500 0 0 2500 0 2500 -2500 0 -2500 0 0
-2500z m1591 1466 c58 -39 92 -96 97 -165 5 -69 -12 -108 -62 -146 -51 -39
-97 -49 -141 -31 -42 18 -46 34 -7 28 35 -5 62 19 62 54 0 63 -53 99 -137 92
-152 -13 -235 -188 -160 -339 15 -30 48 -77 74 -106 133 -143 302 -193 491
-144 98 26 163 59 247 126 l70 57 -86 -84 c-206 -199 -365 -239 -649 -165
-162 43 -284 62 -331 53 -20 -3 -91 -33 -159 -66 -137 -66 -194 -75 -268 -44
-44 18 -92 61 -92 83 0 11 6 8 24 -9 37 -34 71 -29 119 18 57 54 117 83 196
91 l66 8 -55 8 c-39 6 -62 16 -82 36 -32 31 -37 55 -10 44 40 -17 54 -16 109
10 96 44 133 39 261 -38 105 -63 292 -161 292 -153 0 2 -48 37 -107 77 -59 41
-128 94 -153 119 -54 53 -121 163 -146 238 -39 123 13 292 110 351 64 40 136
15 136 -48 0 -14 4 -21 8 -16 17 24 54 48 109 71 70 30 118 27 174 -10z m1245
-2 c-176 -28 -314 -84 -425 -173 -88 -71 -115 -86 -200 -111 -89 -27 -185 -24
-272 10 l-56 22 -10 64 -9 65 44 26 c60 36 106 34 178 -8 92 -53 140 -49 334
30 198 80 239 89 385 89 l120 0 -89 -14z m362 -83 c45 -11 106 -33 135 -47 94
-47 221 -147 278 -216 l30 -38 -64 45 c-262 183 -514 177 -654 -15 -83 -116
-80 -113 -148 -104 -33 4 -79 7 -103 7 -51 -1 -50 2 6 112 47 90 115 159 173
176 68 19 72 32 8 27 -30 -2 -77 -15 -105 -28 -71 -34 -167 -133 -187 -194
-19 -56 -22 -143 -6 -199 23 -85 -26 -159 -119 -177 -31 -7 -67 -18 -78 -25
-20 -13 -22 -12 -27 29 -10 69 36 315 70 379 63 118 215 236 358 279 83 25
313 19 433 -11z m342 -284 c96 -45 248 -233 324 -399 79 -174 116 -345 116
-540 0 -325 -123 -642 -338 -867 -61 -64 -95 -88 -362 -242 -162 -95 -317
-177 -343 -185 -73 -19 -297 -27 -432 -15 -232 21 -391 79 -523 192 -79 68
-103 100 -48 64 17 -11 41 -16 69 -14 23 1 89 3 147 3 l105 1 52 -42 c85 -67
242 -115 418 -128 320 -23 752 201 984 510 71 94 164 287 198 410 24 88 28
117 27 240 0 130 -2 147 -32 235 -17 52 -48 124 -69 158 -50 85 -187 216 -261
250 -138 64 -272 7 -272 -116 0 -56 31 -92 79 -92 20 0 42 5 49 12 27 27 11
-13 -20 -47 -113 -130 -297 -84 -355 90 -20 62 -20 152 1 192 29 58 114 113
173 113 l27 0 -31 28 c-56 48 -51 55 97 141 144 85 142 84 220 48z m-1353 -64
c-55 -72 -120 -132 -178 -166 -64 -37 -178 -75 -247 -83 -52 -5 -67 -3 -114
19 -76 37 -97 57 -113 110 -13 44 -13 47 5 47 10 0 41 12 69 27 l51 26 88 -18
c126 -26 180 -31 240 -22 60 8 149 51 202 96 19 16 37 28 38 26 2 -2 -16 -30
-41 -62z m-27 -97 c0 -2 -8 -10 -17 -17 -16 -13 -17 -12 -4 4 13 16 21 21 21
13z m292 -689 c12 -19 9 -60 -7 -107 -8 -23 -15 -43 -15 -44 0 -1 30 27 66 61
155 149 254 133 173 -29 -17 -34 -85 -145 -151 -246 -66 -101 -118 -185 -115
-188 12 -12 96 47 227 160 68 59 110 78 50 24 -19 -18 -35 -36 -35 -40 0 -4
-3 -8 -8 -8 -4 1 -45 -28 -90 -63 -86 -67 -160 -111 -171 -100 -12 12 -7 55 6
47 8 -5 9 -2 5 10 -5 11 -3 15 5 10 8 -5 9 -2 5 10 -5 11 -3 15 5 10 7 -5 9
-2 5 8 -7 19 56 123 74 123 7 0 14 6 17 14 3 9 0 11 -8 6 -10 -6 -12 -4 -7 9
6 15 1 17 -41 11 -135 -17 -121 -10 -197 -102 -78 -95 -192 -196 -213 -188 -7
2 -11 1 -8 -4 3 -5 -1 -12 -10 -15 -8 -3 -13 -2 -10 3 4 5 -3 7 -15 4 -11 -3
-16 -9 -11 -12 6 -3 -12 -6 -39 -5 -57 1 -86 21 -95 69 -8 44 29 126 74 166
65 58 172 91 172 54 0 -8 -5 -15 -11 -15 -5 0 -7 5 -3 11 10 17 -55 1 -101
-26 -39 -22 -85 -65 -71 -65 4 0 -2 -12 -13 -26 -29 -37 -37 -89 -18 -118 22
-33 63 -38 115 -15 49 21 160 124 234 217 28 35 53 60 56 58 7 -7 32 14 32 26
0 6 -8 4 -17 -3 -9 -8 1 12 22 44 21 31 40 57 42 57 5 0 -4 -15 -30 -53 -10
-16 -17 -30 -14 -33 3 -3 31 38 62 91 32 52 55 98 51 102 -3 3 -6 2 -6 -3 0
-6 -7 -19 -15 -30 -12 -15 -12 -11 1 18 10 20 20 36 23 34 3 -2 7 11 8 29 4
46 -17 65 -60 55 -45 -10 -97 -41 -90 -53 3 -6 2 -7 -4 -4 -8 5 -36 -24 -90
-93 -9 -13 -9 -25 3 -59 11 -33 12 -51 4 -81 -9 -34 -15 -40 -46 -46 -58 -11
-68 20 -33 108 13 34 17 54 10 56 -6 2 -8 8 -5 14 5 7 -3 9 -22 4 -21 -5 -25
-4 -14 4 13 8 12 10 -3 10 -42 0 -108 -52 -114 -92 -2 -11 -8 -28 -13 -37 -8
-13 -9 -11 -10 12 0 41 27 82 70 106 39 22 104 28 115 11 11 -18 30 -10 50 20
26 40 115 109 162 126 41 15 92 11 105 -9z m1033 13 c-3 -5 -18 -10 -33 -11
-23 0 -24 -2 -8 -8 19 -7 19 -8 -1 -13 -16 -4 -43 -49 -104 -169 -122 -246
-204 -362 -297 -424 -40 -27 -74 -32 -169 -26 -38 3 -56 126 -27 182 8 17 13
33 10 37 -17 16 -158 -49 -153 -71 1 -6 -5 -11 -13 -12 -8 0 -15 -4 -15 -10
-1 -22 -38 -66 -48 -56 -19 19 48 97 114 131 20 11 58 24 85 31 27 6 60 21 74
33 46 40 59 48 93 56 70 15 93 -34 30 -61 -21 -9 -57 -20 -81 -24 -23 -4 -40
-11 -36 -16 3 -5 -1 -9 -9 -9 -19 0 -47 -64 -47 -109 0 -55 27 -85 74 -83 20
1 45 6 56 12 11 6 24 8 29 6 5 -3 20 4 32 15 l24 21 -30 -18 c-19 -11 -11 1
26 37 31 30 68 73 84 97 30 45 37 52 29 25 -5 -15 -3 -15 10 1 18 23 21 40 5
30 -8 -4 -8 0 0 15 13 24 23 28 15 6 -4 -8 -3 -15 0 -15 9 0 48 81 42 88 -3 3
-6 1 -6 -4 0 -6 -7 -19 -15 -30 -14 -16 -14 -15 0 14 9 18 20 30 25 27 12 -8
123 213 114 227 -4 6 -3 8 3 5 6 -4 18 4 27 18 19 28 10 34 -10 8 -13 -17 -14
-17 -8 0 5 13 1 17 -18 17 -14 0 -54 2 -89 5 -46 3 -57 2 -39 -5 19 -7 14 -8
-25 -4 -38 3 -45 2 -30 -6 17 -9 16 -9 -8 -5 -34 7 -70 -3 -62 -16 3 -5 -2 -6
-11 -2 -12 4 -15 3 -10 -5 5 -8 2 -10 -9 -6 -10 4 -15 2 -13 -7 2 -7 -3 -13
-9 -14 -7 0 -14 -4 -14 -10 -1 -5 -8 -19 -15 -30 -8 -11 -14 -28 -14 -38 0
-29 36 -91 76 -130 35 -33 52 -67 35 -67 -16 0 -92 89 -110 130 -25 54 -26 81
-6 120 38 73 137 110 325 120 69 4 133 8 143 8 10 1 15 -2 12 -8z m-165 -170
c-22 -44 -42 -80 -45 -80 -3 0 13 36 35 80 22 44 42 80 45 80 3 0 -13 -36 -35
-80z m-940 -20 c-6 -11 -13 -20 -16 -20 -2 0 0 9 6 20 6 11 13 20 16 20 2 0 0
-9 -6 -20z m646 -941 c94 -30 174 -39 224 -26 40 11 -119 -62 -185 -85 -85
-29 -167 -27 -239 5 -96 44 -144 87 -97 87 10 0 43 11 72 24 72 33 110 32 225
-5z"/>
<path d="M1551 3825 c0 -18 28 -61 29 -44 0 8 -7 24 -15 35 -8 10 -14 15 -14
9z"/>
<path d="M2186 1531 c-7 -11 33 -47 67 -60 24 -9 27 -8 27 9 0 13 -14 27 -40
40 -45 23 -47 23 -54 11z"/>
<path d="M2608 2730 c-37 -20 -212 -190 -203 -198 2 -3 -14 -27 -36 -53 l-41
-49 30 0 c16 0 56 3 88 6 l60 6 58 89 c32 49 61 89 63 89 6 0 0 -10 -69 -112
-32 -49 -55 -88 -51 -88 8 0 126 178 153 230 16 30 21 80 8 80 -5 0 -6 5 -3
10 10 16 -17 11 -57 -10z m42 -80 c-6 -11 -13 -20 -16 -20 -2 0 0 9 6 20 6 11
13 20 16 20 2 0 0 -9 -6 -20z"/>
<path d="M2141 2512 c-22 -44 -27 -77 -12 -86 15 -10 38 4 50 30 15 33 14 56
-3 79 -13 18 -15 16 -35 -23z"/>
<path d="M2233 2358 c-22 -29 -71 -84 -109 -122 -38 -39 -55 -60 -39 -49 50
35 203 209 193 219 -3 2 -23 -19 -45 -48z"/>
<path d="M2460 2357 c-34 -55 -52 -87 -47 -87 8 0 70 100 65 105 -2 2 -10 -6
-18 -18z"/>
<path d="M3323 2743 c15 -2 37 -2 50 0 12 2 0 4 -28 4 -27 0 -38 -2 -22 -4z"/>
<path d="M2968 2404 c-16 -8 -28 -19 -28 -25 0 -6 -4 -8 -9 -4 -5 3 -12 1 -16
-4 -8 -14 79 -5 107 11 l23 13 -30 4 c-30 4 -30 4 -5 11 20 7 21 8 5 9 -11 0
-32 -7 -47 -15z"/>
<path d="M3146 2284 c-10 -14 -33 -43 -53 -65 -19 -21 -31 -39 -26 -39 12 0
107 119 100 126 -2 2 -12 -7 -21 -22z"/>
<path d="M2870 1580 c19 -13 30 -13 30 0 0 6 -10 10 -22 10 -19 0 -20 -2 -8
-10z"/>
</g>
</svg>
